<mxfile host="Electron" agent="Mozilla/5.0 (Windows NT 10.0; Win64; x64) AppleWebKit/537.36 (KHTML, like Gecko) draw.io/28.0.6 Chrome/138.0.7204.100 Electron/37.2.3 Safari/537.36" version="28.0.6">
  <diagram name="Page-1" id="j3OtGSIM8J5j5oHWWXC2">
    <mxGraphModel dx="2745" dy="1138" grid="1" gridSize="10" guides="1" tooltips="1" connect="1" arrows="1" fold="1" page="1" pageScale="1" pageWidth="850" pageHeight="1100" math="0" shadow="0">
      <root>
        <mxCell id="0" />
        <mxCell id="1" parent="0" />
        <mxCell id="fcP9if3WN0dxyeJruNeQ-1" value="&lt;font style=&quot;font-size: 24px;&quot;&gt;Customers&lt;/font&gt;" style="rounded=0;whiteSpace=wrap;html=1;" parent="1" vertex="1">
          <mxGeometry x="275" y="130" width="150" height="60" as="geometry" />
        </mxCell>
        <mxCell id="fcP9if3WN0dxyeJruNeQ-2" value="&lt;font style=&quot;font-size: 18px;&quot;&gt;&lt;u&gt;Customer_ID&lt;/u&gt;&lt;/font&gt;" style="ellipse;whiteSpace=wrap;html=1;" parent="1" vertex="1">
          <mxGeometry x="290" y="60" width="120" height="40" as="geometry" />
        </mxCell>
        <mxCell id="fcP9if3WN0dxyeJruNeQ-6" value="&lt;font style=&quot;font-size: 14px;&quot;&gt;Phone&lt;/font&gt;" style="ellipse;whiteSpace=wrap;html=1;" parent="1" vertex="1">
          <mxGeometry x="115" y="140" width="100" height="40" as="geometry" />
        </mxCell>
        <mxCell id="fcP9if3WN0dxyeJruNeQ-7" value="&lt;font style=&quot;font-size: 14px;&quot;&gt;L-Name&lt;/font&gt;" style="ellipse;whiteSpace=wrap;html=1;" parent="1" vertex="1">
          <mxGeometry x="-25" y="130" width="90" height="40" as="geometry" />
        </mxCell>
        <mxCell id="fcP9if3WN0dxyeJruNeQ-9" value="&lt;font style=&quot;font-size: 14px;&quot;&gt;F-Name&lt;/font&gt;" style="ellipse;whiteSpace=wrap;html=1;" parent="1" vertex="1">
          <mxGeometry x="-25" y="60" width="90" height="40" as="geometry" />
        </mxCell>
        <mxCell id="fcP9if3WN0dxyeJruNeQ-10" value="&lt;font style=&quot;font-size: 14px;&quot;&gt;Email&lt;/font&gt;" style="ellipse;whiteSpace=wrap;html=1;" parent="1" vertex="1">
          <mxGeometry x="115" y="200" width="100" height="40" as="geometry" />
        </mxCell>
        <mxCell id="fcP9if3WN0dxyeJruNeQ-11" value="&lt;font style=&quot;font-size: 14px;&quot;&gt;Name&lt;/font&gt;" style="ellipse;whiteSpace=wrap;html=1;" parent="1" vertex="1">
          <mxGeometry x="125" y="80" width="100" height="40" as="geometry" />
        </mxCell>
        <mxCell id="fcP9if3WN0dxyeJruNeQ-12" value="&lt;font style=&quot;font-size: 14px;&quot;&gt;City&lt;/font&gt;" style="ellipse;whiteSpace=wrap;html=1;" parent="1" vertex="1">
          <mxGeometry x="485" y="120" width="100" height="40" as="geometry" />
        </mxCell>
        <mxCell id="fcP9if3WN0dxyeJruNeQ-13" value="&lt;font style=&quot;font-size: 14px;&quot;&gt;Country&lt;/font&gt;" style="ellipse;whiteSpace=wrap;html=1;" parent="1" vertex="1">
          <mxGeometry x="485" y="180" width="100" height="40" as="geometry" />
        </mxCell>
        <mxCell id="fcP9if3WN0dxyeJruNeQ-14" value="&lt;font style=&quot;font-size: 14px;&quot;&gt;Address&lt;/font&gt;" style="ellipse;whiteSpace=wrap;html=1;" parent="1" vertex="1">
          <mxGeometry x="485" y="60" width="100" height="40" as="geometry" />
        </mxCell>
        <mxCell id="fcP9if3WN0dxyeJruNeQ-16" value="&lt;font style=&quot;font-size: 14px;&quot;&gt;Registration_Date&lt;/font&gt;" style="ellipse;whiteSpace=wrap;html=1;" parent="1" vertex="1">
          <mxGeometry x="400" y="258" width="130" height="40" as="geometry" />
        </mxCell>
        <mxCell id="fcP9if3WN0dxyeJruNeQ-28" value="&lt;font style=&quot;font-size: 24px;&quot;&gt;Orders&lt;/font&gt;" style="rounded=0;whiteSpace=wrap;html=1;" parent="1" vertex="1">
          <mxGeometry x="-130" y="388" width="150" height="60" as="geometry" />
        </mxCell>
        <mxCell id="fcP9if3WN0dxyeJruNeQ-29" value="&lt;font style=&quot;font-size: 18px;&quot;&gt;&lt;u&gt;Order_ID&lt;/u&gt;&lt;/font&gt;" style="ellipse;whiteSpace=wrap;html=1;" parent="1" vertex="1">
          <mxGeometry x="-115" y="278" width="120" height="40" as="geometry" />
        </mxCell>
        <mxCell id="fcP9if3WN0dxyeJruNeQ-30" value="&lt;font style=&quot;font-size: 14px;&quot;&gt;Total_Amount&lt;/font&gt;" style="ellipse;whiteSpace=wrap;html=1;" parent="1" vertex="1">
          <mxGeometry x="-350" y="398" width="100" height="40" as="geometry" />
        </mxCell>
        <mxCell id="fcP9if3WN0dxyeJruNeQ-31" value="&lt;font style=&quot;font-size: 14px;&quot;&gt;Order_Status&lt;/font&gt;" style="ellipse;whiteSpace=wrap;html=1;" parent="1" vertex="1">
          <mxGeometry x="-320" y="466" width="100" height="40" as="geometry" />
        </mxCell>
        <mxCell id="fcP9if3WN0dxyeJruNeQ-32" value="&lt;font style=&quot;font-size: 14px;&quot;&gt;Order_Date&lt;/font&gt;" style="ellipse;whiteSpace=wrap;html=1;" parent="1" vertex="1">
          <mxGeometry x="-320" y="331" width="100" height="40" as="geometry" />
        </mxCell>
        <mxCell id="fcP9if3WN0dxyeJruNeQ-38" value="&lt;font style=&quot;font-size: 24px;&quot;&gt;Order_Items&lt;/font&gt;" style="rounded=0;whiteSpace=wrap;html=1;" parent="1" vertex="1">
          <mxGeometry x="90" y="690" width="150" height="60" as="geometry" />
        </mxCell>
        <mxCell id="fcP9if3WN0dxyeJruNeQ-39" value="&lt;font style=&quot;font-size: 18px;&quot;&gt;&lt;u&gt;Order_Items_ID&lt;/u&gt;&lt;/font&gt;" style="ellipse;whiteSpace=wrap;html=1;" parent="1" vertex="1">
          <mxGeometry x="95" y="880" width="140" height="40" as="geometry" />
        </mxCell>
        <mxCell id="fcP9if3WN0dxyeJruNeQ-40" value="&lt;font style=&quot;font-size: 14px;&quot;&gt;Quantity&lt;/font&gt;" style="ellipse;whiteSpace=wrap;html=1;" parent="1" vertex="1">
          <mxGeometry x="-25" y="810" width="100" height="40" as="geometry" />
        </mxCell>
        <mxCell id="fcP9if3WN0dxyeJruNeQ-41" value="&lt;font style=&quot;font-size: 14px;&quot;&gt;Unit_Price&lt;/font&gt;" style="ellipse;whiteSpace=wrap;html=1;" parent="1" vertex="1">
          <mxGeometry x="235" y="810" width="100" height="40" as="geometry" />
        </mxCell>
        <mxCell id="fcP9if3WN0dxyeJruNeQ-48" value="&lt;font style=&quot;font-size: 24px;&quot;&gt;Products&lt;/font&gt;" style="rounded=0;whiteSpace=wrap;html=1;" parent="1" vertex="1">
          <mxGeometry x="490" y="690" width="150" height="60" as="geometry" />
        </mxCell>
        <mxCell id="fcP9if3WN0dxyeJruNeQ-49" value="&lt;font style=&quot;font-size: 18px;&quot;&gt;&lt;u&gt;Product_ID&lt;/u&gt;&lt;/font&gt;" style="ellipse;whiteSpace=wrap;html=1;" parent="1" vertex="1">
          <mxGeometry x="505" y="840" width="120" height="40" as="geometry" />
        </mxCell>
        <mxCell id="fcP9if3WN0dxyeJruNeQ-50" value="&lt;font style=&quot;font-size: 14px;&quot;&gt;Stock_Quantity&lt;/font&gt;" style="ellipse;whiteSpace=wrap;html=1;" parent="1" vertex="1">
          <mxGeometry x="700" y="750" width="100" height="40" as="geometry" />
        </mxCell>
        <mxCell id="fcP9if3WN0dxyeJruNeQ-51" value="&lt;font style=&quot;font-size: 14px;&quot;&gt;Category&lt;/font&gt;" style="ellipse;whiteSpace=wrap;html=1;" parent="1" vertex="1">
          <mxGeometry x="325" y="740" width="100" height="40" as="geometry" />
        </mxCell>
        <mxCell id="fcP9if3WN0dxyeJruNeQ-52" value="&lt;font style=&quot;font-size: 14px;&quot;&gt;Product_Name&lt;/font&gt;" style="ellipse;whiteSpace=wrap;html=1;" parent="1" vertex="1">
          <mxGeometry x="325" y="650" width="100" height="40" as="geometry" />
        </mxCell>
        <mxCell id="fcP9if3WN0dxyeJruNeQ-53" value="&lt;font style=&quot;font-size: 14px;&quot;&gt;Price&lt;/font&gt;" style="ellipse;whiteSpace=wrap;html=1;" parent="1" vertex="1">
          <mxGeometry x="700" y="680" width="100" height="40" as="geometry" />
        </mxCell>
        <mxCell id="fcP9if3WN0dxyeJruNeQ-59" value="&lt;span style=&quot;font-size: 24px;&quot;&gt;Suppliers&lt;/span&gt;" style="rounded=0;whiteSpace=wrap;html=1;" parent="1" vertex="1">
          <mxGeometry x="1030" y="690" width="150" height="60" as="geometry" />
        </mxCell>
        <mxCell id="fcP9if3WN0dxyeJruNeQ-60" value="&lt;font style=&quot;font-size: 18px;&quot;&gt;&lt;u&gt;Suppliers_ID&lt;/u&gt;&lt;/font&gt;" style="ellipse;whiteSpace=wrap;html=1;" parent="1" vertex="1">
          <mxGeometry x="1045" y="600" width="120" height="40" as="geometry" />
        </mxCell>
        <mxCell id="fcP9if3WN0dxyeJruNeQ-61" value="&lt;font style=&quot;font-size: 14px;&quot;&gt;Suppliers_Name&lt;/font&gt;" style="ellipse;whiteSpace=wrap;html=1;" parent="1" vertex="1">
          <mxGeometry x="870" y="630" width="110" height="40" as="geometry" />
        </mxCell>
        <mxCell id="fcP9if3WN0dxyeJruNeQ-62" value="&lt;font style=&quot;font-size: 14px;&quot;&gt;Contact_Name&lt;/font&gt;" style="ellipse;whiteSpace=wrap;html=1;" parent="1" vertex="1">
          <mxGeometry x="872.5" y="700" width="100" height="40" as="geometry" />
        </mxCell>
        <mxCell id="fcP9if3WN0dxyeJruNeQ-65" value="&lt;font style=&quot;font-size: 14px;&quot;&gt;Address&lt;/font&gt;" style="ellipse;whiteSpace=wrap;html=1;" parent="1" vertex="1">
          <mxGeometry x="1265" y="630" width="100" height="40" as="geometry" />
        </mxCell>
        <mxCell id="fcP9if3WN0dxyeJruNeQ-66" value="&lt;font style=&quot;font-size: 14px;&quot;&gt;City&lt;/font&gt;" style="ellipse;whiteSpace=wrap;html=1;" parent="1" vertex="1">
          <mxGeometry x="1267.5" y="700" width="100" height="40" as="geometry" />
        </mxCell>
        <mxCell id="fcP9if3WN0dxyeJruNeQ-67" value="&lt;font style=&quot;font-size: 14px;&quot;&gt;Country&lt;/font&gt;" style="ellipse;whiteSpace=wrap;html=1;" parent="1" vertex="1">
          <mxGeometry x="1267.5" y="770" width="100" height="40" as="geometry" />
        </mxCell>
        <mxCell id="fcP9if3WN0dxyeJruNeQ-73" value="&lt;font style=&quot;font-size: 14px;&quot;&gt;Phone&lt;/font&gt;" style="ellipse;whiteSpace=wrap;html=1;" parent="1" vertex="1">
          <mxGeometry x="872.5" y="770" width="100" height="40" as="geometry" />
        </mxCell>
        <mxCell id="fcP9if3WN0dxyeJruNeQ-82" value="&lt;span style=&quot;font-size: 24px;&quot;&gt;Payments&lt;/span&gt;" style="rounded=0;whiteSpace=wrap;html=1;" parent="1" vertex="1">
          <mxGeometry x="837.5" y="150" width="150" height="60" as="geometry" />
        </mxCell>
        <mxCell id="fcP9if3WN0dxyeJruNeQ-83" value="&lt;span style=&quot;font-size: 24px;&quot;&gt;Inventory&lt;/span&gt;" style="rounded=0;whiteSpace=wrap;html=1;" parent="1" vertex="1">
          <mxGeometry x="932.5" y="345" width="150" height="60" as="geometry" />
        </mxCell>
        <mxCell id="fcP9if3WN0dxyeJruNeQ-96" value="&lt;font style=&quot;font-size: 18px;&quot;&gt;&lt;u&gt;Inventory_ID&lt;/u&gt;&lt;/font&gt;" style="ellipse;whiteSpace=wrap;html=1;" parent="1" vertex="1">
          <mxGeometry x="947.5" y="255" width="120" height="40" as="geometry" />
        </mxCell>
        <mxCell id="fcP9if3WN0dxyeJruNeQ-97" value="&lt;font style=&quot;font-size: 18px;&quot;&gt;&lt;u&gt;Payment_ID&lt;/u&gt;&lt;/font&gt;" style="ellipse;whiteSpace=wrap;html=1;" parent="1" vertex="1">
          <mxGeometry x="852.5" y="60" width="120" height="40" as="geometry" />
        </mxCell>
        <mxCell id="fcP9if3WN0dxyeJruNeQ-98" value="&lt;span style=&quot;font-size: 14px;&quot;&gt;Warehouse_Location&lt;/span&gt;" style="ellipse;whiteSpace=wrap;html=1;" parent="1" vertex="1">
          <mxGeometry x="1152.5" y="273" width="160" height="40" as="geometry" />
        </mxCell>
        <mxCell id="fcP9if3WN0dxyeJruNeQ-99" value="&lt;font style=&quot;font-size: 14px;&quot;&gt;Quantity_Available&lt;/font&gt;" style="ellipse;whiteSpace=wrap;html=1;" parent="1" vertex="1">
          <mxGeometry x="1162.5" y="428" width="140" height="40" as="geometry" />
        </mxCell>
        <mxCell id="fcP9if3WN0dxyeJruNeQ-100" value="&lt;font style=&quot;font-size: 14px;&quot;&gt;Last_Updated&lt;/font&gt;" style="ellipse;whiteSpace=wrap;html=1;" parent="1" vertex="1">
          <mxGeometry x="1182.5" y="355" width="100" height="40" as="geometry" />
        </mxCell>
        <mxCell id="fcP9if3WN0dxyeJruNeQ-106" value="&lt;font style=&quot;font-size: 14px;&quot;&gt;Payment_Method&lt;/font&gt;" style="ellipse;whiteSpace=wrap;html=1;" parent="1" vertex="1">
          <mxGeometry x="1047.5" y="160" width="150" height="40" as="geometry" />
        </mxCell>
        <mxCell id="fcP9if3WN0dxyeJruNeQ-107" value="&lt;font style=&quot;font-size: 14px;&quot;&gt;Amount&lt;/font&gt;" style="ellipse;whiteSpace=wrap;html=1;" parent="1" vertex="1">
          <mxGeometry x="1047.5" y="60" width="100" height="40" as="geometry" />
        </mxCell>
        <mxCell id="fcP9if3WN0dxyeJruNeQ-108" value="&lt;font style=&quot;font-size: 14px;&quot;&gt;Payment_Date&lt;/font&gt;" style="ellipse;whiteSpace=wrap;html=1;" parent="1" vertex="1">
          <mxGeometry x="682.5" y="160" width="100" height="40" as="geometry" />
        </mxCell>
        <mxCell id="fcP9if3WN0dxyeJruNeQ-122" value="&lt;font style=&quot;font-size: 14px;&quot;&gt;Ordered&lt;/font&gt;" style="rhombus;whiteSpace=wrap;html=1;rotation=-30;" parent="1" vertex="1">
          <mxGeometry x="145" y="260" width="80" height="80" as="geometry" />
        </mxCell>
        <mxCell id="fcP9if3WN0dxyeJruNeQ-129" value="1" style="text;html=1;align=center;verticalAlign=middle;resizable=0;points=[];autosize=1;strokeColor=none;fillColor=none;rotation=-30;" parent="1" vertex="1">
          <mxGeometry x="205" y="250" width="30" height="30" as="geometry" />
        </mxCell>
        <mxCell id="fcP9if3WN0dxyeJruNeQ-130" value="N" style="text;html=1;align=center;verticalAlign=middle;resizable=0;points=[];autosize=1;strokeColor=none;fillColor=none;rotation=-30;" parent="1" vertex="1">
          <mxGeometry x="120" y="298" width="30" height="30" as="geometry" />
        </mxCell>
        <mxCell id="fcP9if3WN0dxyeJruNeQ-131" value="&lt;font style=&quot;font-size: 14px;&quot;&gt;Paid_by&lt;/font&gt;" style="rhombus;whiteSpace=wrap;html=1;" parent="1" vertex="1">
          <mxGeometry x="505" y="378" width="80" height="80" as="geometry" />
        </mxCell>
        <mxCell id="fcP9if3WN0dxyeJruNeQ-142" value="&lt;font style=&quot;font-size: 14px;&quot;&gt;Contains&lt;/font&gt;" style="rhombus;whiteSpace=wrap;html=1;rotation=60;" parent="1" vertex="1">
          <mxGeometry x="-40" y="510" width="80" height="80" as="geometry" />
        </mxCell>
        <mxCell id="fcP9if3WN0dxyeJruNeQ-146" value="N" style="text;html=1;align=center;verticalAlign=middle;resizable=0;points=[];autosize=1;strokeColor=none;fillColor=none;rotation=60;" parent="1" vertex="1">
          <mxGeometry x="20" y="560" width="30" height="30" as="geometry" />
        </mxCell>
        <mxCell id="fcP9if3WN0dxyeJruNeQ-148" value="1" style="text;html=1;align=center;verticalAlign=middle;resizable=0;points=[];autosize=1;strokeColor=none;fillColor=none;rotation=70;" parent="1" vertex="1">
          <mxGeometry x="-25" y="490" width="30" height="30" as="geometry" />
        </mxCell>
        <mxCell id="fcP9if3WN0dxyeJruNeQ-149" value="&lt;font style=&quot;font-size: 14px;&quot;&gt;Part_Of&lt;/font&gt;" style="rhombus;whiteSpace=wrap;html=1;" parent="1" vertex="1">
          <mxGeometry x="335" y="520" width="80" height="80" as="geometry" />
        </mxCell>
        <mxCell id="fcP9if3WN0dxyeJruNeQ-174" value="" style="endArrow=none;html=1;rounded=0;curved=1;exitX=0.5;exitY=0;exitDx=0;exitDy=0;entryX=0;entryY=1;entryDx=0;entryDy=0;" parent="1" source="fcP9if3WN0dxyeJruNeQ-40" edge="1" target="fcP9if3WN0dxyeJruNeQ-38">
          <mxGeometry width="50" height="50" relative="1" as="geometry">
            <mxPoint x="80" y="800" as="sourcePoint" />
            <mxPoint x="130" y="750" as="targetPoint" />
          </mxGeometry>
        </mxCell>
        <mxCell id="fcP9if3WN0dxyeJruNeQ-175" value="" style="endArrow=none;html=1;rounded=0;curved=1;exitX=0.5;exitY=0;exitDx=0;exitDy=0;entryX=1;entryY=1;entryDx=0;entryDy=0;" parent="1" source="fcP9if3WN0dxyeJruNeQ-41" target="fcP9if3WN0dxyeJruNeQ-38" edge="1">
          <mxGeometry width="50" height="50" relative="1" as="geometry">
            <mxPoint x="230" y="810" as="sourcePoint" />
            <mxPoint x="240" y="770" as="targetPoint" />
          </mxGeometry>
        </mxCell>
        <mxCell id="fcP9if3WN0dxyeJruNeQ-179" value="" style="shape=link;html=1;rounded=0;curved=1;entryX=0;entryY=0;entryDx=0;entryDy=0;exitX=1;exitY=0.5;exitDx=0;exitDy=0;" parent="1" source="fcP9if3WN0dxyeJruNeQ-142" target="fcP9if3WN0dxyeJruNeQ-38" edge="1">
          <mxGeometry width="100" relative="1" as="geometry">
            <mxPoint x="-150" y="740" as="sourcePoint" />
            <mxPoint x="-50" y="740" as="targetPoint" />
          </mxGeometry>
        </mxCell>
        <mxCell id="fcP9if3WN0dxyeJruNeQ-180" value="" style="endArrow=none;html=1;rounded=0;curved=1;entryX=0.5;entryY=1;entryDx=0;entryDy=0;exitX=0;exitY=0.5;exitDx=0;exitDy=0;" parent="1" target="fcP9if3WN0dxyeJruNeQ-28" edge="1" source="fcP9if3WN0dxyeJruNeQ-142">
          <mxGeometry width="50" height="50" relative="1" as="geometry">
            <mxPoint x="-190" y="700" as="sourcePoint" />
            <mxPoint x="-140" y="650" as="targetPoint" />
          </mxGeometry>
        </mxCell>
        <mxCell id="fcP9if3WN0dxyeJruNeQ-184" value="" style="endArrow=none;html=1;rounded=0;curved=1;entryX=0.5;entryY=0;entryDx=0;entryDy=0;exitX=0.5;exitY=1;exitDx=0;exitDy=0;" parent="1" source="fcP9if3WN0dxyeJruNeQ-38" edge="1" target="fcP9if3WN0dxyeJruNeQ-39">
          <mxGeometry width="50" height="50" relative="1" as="geometry">
            <mxPoint x="170" y="750" as="sourcePoint" />
            <mxPoint x="170" y="640" as="targetPoint" />
          </mxGeometry>
        </mxCell>
        <mxCell id="fcP9if3WN0dxyeJruNeQ-185" value="" style="endArrow=none;html=1;rounded=0;curved=1;entryX=1;entryY=0.25;entryDx=0;entryDy=0;" parent="1" source="fcP9if3WN0dxyeJruNeQ-53" target="fcP9if3WN0dxyeJruNeQ-48" edge="1">
          <mxGeometry width="50" height="50" relative="1" as="geometry">
            <mxPoint x="629.2893218813452" y="750" as="sourcePoint" />
            <mxPoint x="660" y="700" as="targetPoint" />
          </mxGeometry>
        </mxCell>
        <mxCell id="fcP9if3WN0dxyeJruNeQ-186" value="" style="endArrow=none;html=1;rounded=0;curved=1;exitX=1;exitY=0.5;exitDx=0;exitDy=0;entryX=0;entryY=1;entryDx=0;entryDy=0;" parent="1" source="fcP9if3WN0dxyeJruNeQ-51" edge="1" target="fcP9if3WN0dxyeJruNeQ-48">
          <mxGeometry width="50" height="50" relative="1" as="geometry">
            <mxPoint x="440" y="790" as="sourcePoint" />
            <mxPoint x="490" y="740" as="targetPoint" />
          </mxGeometry>
        </mxCell>
        <mxCell id="fcP9if3WN0dxyeJruNeQ-187" value="" style="endArrow=none;html=1;rounded=0;curved=1;exitX=1;exitY=0.5;exitDx=0;exitDy=0;entryX=0;entryY=0;entryDx=0;entryDy=0;" parent="1" source="fcP9if3WN0dxyeJruNeQ-52" edge="1" target="fcP9if3WN0dxyeJruNeQ-48">
          <mxGeometry width="50" height="50" relative="1" as="geometry">
            <mxPoint x="440" y="750" as="sourcePoint" />
            <mxPoint x="490" y="700" as="targetPoint" />
          </mxGeometry>
        </mxCell>
        <mxCell id="fcP9if3WN0dxyeJruNeQ-188" value="" style="endArrow=none;html=1;rounded=0;curved=1;exitX=1;exitY=1;exitDx=0;exitDy=0;" parent="1" source="fcP9if3WN0dxyeJruNeQ-48" edge="1">
          <mxGeometry width="50" height="50" relative="1" as="geometry">
            <mxPoint x="650" y="820" as="sourcePoint" />
            <mxPoint x="700" y="770" as="targetPoint" />
          </mxGeometry>
        </mxCell>
        <mxCell id="fcP9if3WN0dxyeJruNeQ-189" value="" style="endArrow=none;html=1;rounded=0;curved=1;entryX=0.5;entryY=0;entryDx=0;entryDy=0;exitX=0.5;exitY=1;exitDx=0;exitDy=0;" parent="1" source="fcP9if3WN0dxyeJruNeQ-48" target="fcP9if3WN0dxyeJruNeQ-49" edge="1">
          <mxGeometry width="50" height="50" relative="1" as="geometry">
            <mxPoint x="570" y="760" as="sourcePoint" />
            <mxPoint x="565" y="660" as="targetPoint" />
          </mxGeometry>
        </mxCell>
        <mxCell id="fcP9if3WN0dxyeJruNeQ-193" value="" style="endArrow=none;html=1;rounded=0;curved=1;exitX=0.5;exitY=0;exitDx=0;exitDy=0;entryX=0.5;entryY=1;entryDx=0;entryDy=0;" parent="1" source="fcP9if3WN0dxyeJruNeQ-28" edge="1" target="fcP9if3WN0dxyeJruNeQ-29">
          <mxGeometry width="50" height="50" relative="1" as="geometry">
            <mxPoint x="-100" y="368" as="sourcePoint" />
            <mxPoint x="-50" y="318" as="targetPoint" />
          </mxGeometry>
        </mxCell>
        <mxCell id="fcP9if3WN0dxyeJruNeQ-194" value="" style="endArrow=none;html=1;rounded=0;curved=1;exitX=1;exitY=0.5;exitDx=0;exitDy=0;entryX=0;entryY=0.5;entryDx=0;entryDy=0;" parent="1" source="fcP9if3WN0dxyeJruNeQ-30" edge="1" target="fcP9if3WN0dxyeJruNeQ-28">
          <mxGeometry width="50" height="50" relative="1" as="geometry">
            <mxPoint x="-70" y="498" as="sourcePoint" />
            <mxPoint x="-40" y="478" as="targetPoint" />
          </mxGeometry>
        </mxCell>
        <mxCell id="fcP9if3WN0dxyeJruNeQ-195" value="" style="shape=link;html=1;rounded=0;curved=1;exitX=1;exitY=0;exitDx=0;exitDy=0;entryX=0;entryY=0.5;entryDx=0;entryDy=0;" parent="1" source="fcP9if3WN0dxyeJruNeQ-28" target="fcP9if3WN0dxyeJruNeQ-122" edge="1">
          <mxGeometry width="100" relative="1" as="geometry">
            <mxPoint x="-10" y="390" as="sourcePoint" />
            <mxPoint x="94" y="330" as="targetPoint" />
          </mxGeometry>
        </mxCell>
        <mxCell id="fcP9if3WN0dxyeJruNeQ-196" value="" style="endArrow=none;html=1;rounded=0;curved=1;entryX=0.5;entryY=1;entryDx=0;entryDy=0;exitX=1;exitY=0.5;exitDx=0;exitDy=0;" parent="1" target="fcP9if3WN0dxyeJruNeQ-1" edge="1" source="fcP9if3WN0dxyeJruNeQ-122">
          <mxGeometry width="50" height="50" relative="1" as="geometry">
            <mxPoint x="230" y="380" as="sourcePoint" />
            <mxPoint x="410" y="200" as="targetPoint" />
          </mxGeometry>
        </mxCell>
        <mxCell id="fcP9if3WN0dxyeJruNeQ-197" value="" style="endArrow=none;html=1;rounded=0;curved=1;exitX=1;exitY=0.5;exitDx=0;exitDy=0;entryX=0;entryY=1;entryDx=0;entryDy=0;" parent="1" source="fcP9if3WN0dxyeJruNeQ-10" edge="1" target="fcP9if3WN0dxyeJruNeQ-1">
          <mxGeometry width="50" height="50" relative="1" as="geometry">
            <mxPoint x="235" y="210" as="sourcePoint" />
            <mxPoint x="275" y="190" as="targetPoint" />
          </mxGeometry>
        </mxCell>
        <mxCell id="fcP9if3WN0dxyeJruNeQ-198" value="" style="endArrow=none;html=1;rounded=0;curved=1;exitX=1;exitY=0.5;exitDx=0;exitDy=0;" parent="1" source="fcP9if3WN0dxyeJruNeQ-6" edge="1">
          <mxGeometry width="50" height="50" relative="1" as="geometry">
            <mxPoint x="225" y="210" as="sourcePoint" />
            <mxPoint x="275" y="160" as="targetPoint" />
          </mxGeometry>
        </mxCell>
        <mxCell id="fcP9if3WN0dxyeJruNeQ-199" value="" style="endArrow=none;html=1;rounded=0;curved=1;exitX=1;exitY=0.5;exitDx=0;exitDy=0;entryX=0;entryY=0;entryDx=0;entryDy=0;" parent="1" source="fcP9if3WN0dxyeJruNeQ-11" edge="1" target="fcP9if3WN0dxyeJruNeQ-1">
          <mxGeometry width="50" height="50" relative="1" as="geometry">
            <mxPoint x="225" y="190" as="sourcePoint" />
            <mxPoint x="275" y="140" as="targetPoint" />
          </mxGeometry>
        </mxCell>
        <mxCell id="fcP9if3WN0dxyeJruNeQ-200" value="" style="endArrow=none;html=1;rounded=0;curved=1;exitX=1;exitY=0.5;exitDx=0;exitDy=0;entryX=0;entryY=1;entryDx=0;entryDy=0;" parent="1" source="fcP9if3WN0dxyeJruNeQ-7" edge="1" target="fcP9if3WN0dxyeJruNeQ-11">
          <mxGeometry width="50" height="50" relative="1" as="geometry">
            <mxPoint x="75" y="170" as="sourcePoint" />
            <mxPoint x="125" y="120" as="targetPoint" />
          </mxGeometry>
        </mxCell>
        <mxCell id="fcP9if3WN0dxyeJruNeQ-201" value="" style="endArrow=none;html=1;rounded=0;curved=1;exitX=1;exitY=0.5;exitDx=0;exitDy=0;entryX=0;entryY=0;entryDx=0;entryDy=0;" parent="1" source="fcP9if3WN0dxyeJruNeQ-9" edge="1" target="fcP9if3WN0dxyeJruNeQ-11">
          <mxGeometry width="50" height="50" relative="1" as="geometry">
            <mxPoint x="75" y="160" as="sourcePoint" />
            <mxPoint x="125" y="110" as="targetPoint" />
          </mxGeometry>
        </mxCell>
        <mxCell id="fcP9if3WN0dxyeJruNeQ-203" value="" style="endArrow=none;html=1;rounded=0;curved=1;exitX=0.5;exitY=0;exitDx=0;exitDy=0;entryX=0.5;entryY=1;entryDx=0;entryDy=0;" parent="1" source="fcP9if3WN0dxyeJruNeQ-1" target="fcP9if3WN0dxyeJruNeQ-2" edge="1">
          <mxGeometry width="50" height="50" relative="1" as="geometry">
            <mxPoint x="315" y="150" as="sourcePoint" />
            <mxPoint x="365" y="100" as="targetPoint" />
          </mxGeometry>
        </mxCell>
        <mxCell id="fcP9if3WN0dxyeJruNeQ-204" value="" style="endArrow=none;html=1;rounded=0;curved=1;exitX=1;exitY=0;exitDx=0;exitDy=0;entryX=0;entryY=0.5;entryDx=0;entryDy=0;" parent="1" source="fcP9if3WN0dxyeJruNeQ-1" edge="1" target="fcP9if3WN0dxyeJruNeQ-14">
          <mxGeometry width="50" height="50" relative="1" as="geometry">
            <mxPoint x="425" y="160" as="sourcePoint" />
            <mxPoint x="475" y="110" as="targetPoint" />
          </mxGeometry>
        </mxCell>
        <mxCell id="fcP9if3WN0dxyeJruNeQ-205" value="" style="endArrow=none;html=1;rounded=0;curved=1;exitX=1;exitY=0.5;exitDx=0;exitDy=0;entryX=0;entryY=0.5;entryDx=0;entryDy=0;" parent="1" source="fcP9if3WN0dxyeJruNeQ-1" edge="1" target="fcP9if3WN0dxyeJruNeQ-12">
          <mxGeometry width="50" height="50" relative="1" as="geometry">
            <mxPoint x="435" y="220" as="sourcePoint" />
            <mxPoint x="485" y="170" as="targetPoint" />
          </mxGeometry>
        </mxCell>
        <mxCell id="fcP9if3WN0dxyeJruNeQ-206" value="" style="endArrow=none;html=1;rounded=0;curved=1;exitX=1;exitY=1;exitDx=0;exitDy=0;entryX=0;entryY=0.5;entryDx=0;entryDy=0;" parent="1" source="fcP9if3WN0dxyeJruNeQ-1" edge="1" target="fcP9if3WN0dxyeJruNeQ-13">
          <mxGeometry width="50" height="50" relative="1" as="geometry">
            <mxPoint x="445" y="280" as="sourcePoint" />
            <mxPoint x="495" y="230" as="targetPoint" />
          </mxGeometry>
        </mxCell>
        <mxCell id="fcP9if3WN0dxyeJruNeQ-207" value="" style="endArrow=none;html=1;rounded=0;curved=1;entryX=0.75;entryY=1;entryDx=0;entryDy=0;exitX=0.5;exitY=0;exitDx=0;exitDy=0;" parent="1" target="fcP9if3WN0dxyeJruNeQ-1" edge="1" source="fcP9if3WN0dxyeJruNeQ-16">
          <mxGeometry width="50" height="50" relative="1" as="geometry">
            <mxPoint x="480" y="250" as="sourcePoint" />
            <mxPoint x="530" y="200" as="targetPoint" />
          </mxGeometry>
        </mxCell>
        <mxCell id="fcP9if3WN0dxyeJruNeQ-210" value="" style="endArrow=none;html=1;rounded=0;curved=1;entryX=0;entryY=0.5;entryDx=0;entryDy=0;" parent="1" source="fcP9if3WN0dxyeJruNeQ-82" edge="1" target="fcP9if3WN0dxyeJruNeQ-106">
          <mxGeometry width="50" height="50" relative="1" as="geometry">
            <mxPoint x="987.5" y="230" as="sourcePoint" />
            <mxPoint x="1058.2106781186549" y="180" as="targetPoint" />
          </mxGeometry>
        </mxCell>
        <mxCell id="fcP9if3WN0dxyeJruNeQ-211" value="" style="endArrow=none;html=1;rounded=0;curved=1;exitX=0;exitY=0.5;exitDx=0;exitDy=0;entryX=1;entryY=0;entryDx=0;entryDy=0;" parent="1" source="fcP9if3WN0dxyeJruNeQ-107" edge="1" target="fcP9if3WN0dxyeJruNeQ-82">
          <mxGeometry width="50" height="50" relative="1" as="geometry">
            <mxPoint x="997.5" y="255" as="sourcePoint" />
            <mxPoint x="987.5" y="205" as="targetPoint" />
          </mxGeometry>
        </mxCell>
        <mxCell id="fcP9if3WN0dxyeJruNeQ-212" value="" style="endArrow=none;html=1;rounded=0;curved=1;exitX=0.5;exitY=0;exitDx=0;exitDy=0;entryX=0.5;entryY=1;entryDx=0;entryDy=0;" parent="1" source="fcP9if3WN0dxyeJruNeQ-82" edge="1" target="fcP9if3WN0dxyeJruNeQ-97">
          <mxGeometry width="50" height="50" relative="1" as="geometry">
            <mxPoint x="857.5" y="150" as="sourcePoint" />
            <mxPoint x="907.5" y="100" as="targetPoint" />
          </mxGeometry>
        </mxCell>
        <mxCell id="fcP9if3WN0dxyeJruNeQ-213" value="" style="endArrow=none;html=1;rounded=0;curved=1;" parent="1" source="fcP9if3WN0dxyeJruNeQ-82" edge="1">
          <mxGeometry width="50" height="50" relative="1" as="geometry">
            <mxPoint x="766.7893218813452" y="230" as="sourcePoint" />
            <mxPoint x="777.5" y="180" as="targetPoint" />
          </mxGeometry>
        </mxCell>
        <mxCell id="fcP9if3WN0dxyeJruNeQ-214" value="" style="endArrow=none;html=1;rounded=0;curved=1;entryX=0;entryY=0.5;entryDx=0;entryDy=0;exitX=1;exitY=0;exitDx=0;exitDy=0;" parent="1" target="fcP9if3WN0dxyeJruNeQ-98" edge="1" source="fcP9if3WN0dxyeJruNeQ-83">
          <mxGeometry width="50" height="50" relative="1" as="geometry">
            <mxPoint x="1172.5" y="375" as="sourcePoint" />
            <mxPoint x="1222.5" y="325" as="targetPoint" />
          </mxGeometry>
        </mxCell>
        <mxCell id="fcP9if3WN0dxyeJruNeQ-215" value="" style="endArrow=none;html=1;rounded=0;curved=1;exitX=0;exitY=0.5;exitDx=0;exitDy=0;entryX=1;entryY=0.5;entryDx=0;entryDy=0;" parent="1" source="fcP9if3WN0dxyeJruNeQ-100" edge="1" target="fcP9if3WN0dxyeJruNeQ-83">
          <mxGeometry width="50" height="50" relative="1" as="geometry">
            <mxPoint x="1062.5" y="455" as="sourcePoint" />
            <mxPoint x="1112.5" y="405" as="targetPoint" />
          </mxGeometry>
        </mxCell>
        <mxCell id="fcP9if3WN0dxyeJruNeQ-216" value="" style="endArrow=none;html=1;rounded=0;curved=1;entryX=1;entryY=1;entryDx=0;entryDy=0;" parent="1" source="fcP9if3WN0dxyeJruNeQ-99" target="fcP9if3WN0dxyeJruNeQ-83" edge="1">
          <mxGeometry width="50" height="50" relative="1" as="geometry">
            <mxPoint x="1181.7893218813451" y="505" as="sourcePoint" />
            <mxPoint x="1181.7893218813451" y="455" as="targetPoint" />
          </mxGeometry>
        </mxCell>
        <mxCell id="fcP9if3WN0dxyeJruNeQ-217" value="" style="endArrow=none;html=1;rounded=0;curved=1;exitX=0.5;exitY=0;exitDx=0;exitDy=0;entryX=0.5;entryY=1;entryDx=0;entryDy=0;" parent="1" source="fcP9if3WN0dxyeJruNeQ-83" edge="1" target="fcP9if3WN0dxyeJruNeQ-96">
          <mxGeometry width="50" height="50" relative="1" as="geometry">
            <mxPoint x="1062.5" y="345" as="sourcePoint" />
            <mxPoint x="1112.5" y="295" as="targetPoint" />
          </mxGeometry>
        </mxCell>
        <mxCell id="fcP9if3WN0dxyeJruNeQ-218" value="" style="endArrow=none;html=1;rounded=0;curved=1;exitX=0.5;exitY=0;exitDx=0;exitDy=0;entryX=0.5;entryY=1;entryDx=0;entryDy=0;" parent="1" source="fcP9if3WN0dxyeJruNeQ-59" edge="1" target="fcP9if3WN0dxyeJruNeQ-60">
          <mxGeometry width="50" height="50" relative="1" as="geometry">
            <mxPoint x="1060" y="690" as="sourcePoint" />
            <mxPoint x="1110" y="640" as="targetPoint" />
          </mxGeometry>
        </mxCell>
        <mxCell id="fcP9if3WN0dxyeJruNeQ-219" value="" style="endArrow=none;html=1;rounded=0;curved=1;entryX=0;entryY=0.5;entryDx=0;entryDy=0;exitX=1;exitY=0;exitDx=0;exitDy=0;" parent="1" target="fcP9if3WN0dxyeJruNeQ-65" edge="1" source="fcP9if3WN0dxyeJruNeQ-59">
          <mxGeometry width="50" height="50" relative="1" as="geometry">
            <mxPoint x="1180" y="710" as="sourcePoint" />
            <mxPoint x="1230" y="660" as="targetPoint" />
          </mxGeometry>
        </mxCell>
        <mxCell id="fcP9if3WN0dxyeJruNeQ-220" value="" style="endArrow=none;html=1;rounded=0;curved=1;entryX=0;entryY=0.5;entryDx=0;entryDy=0;" parent="1" source="fcP9if3WN0dxyeJruNeQ-59" edge="1" target="fcP9if3WN0dxyeJruNeQ-66">
          <mxGeometry width="50" height="50" relative="1" as="geometry">
            <mxPoint x="1190" y="730" as="sourcePoint" />
            <mxPoint x="1270" y="740" as="targetPoint" />
          </mxGeometry>
        </mxCell>
        <mxCell id="fcP9if3WN0dxyeJruNeQ-222" value="" style="endArrow=none;html=1;rounded=0;curved=1;exitX=0;exitY=0.5;exitDx=0;exitDy=0;" parent="1" source="fcP9if3WN0dxyeJruNeQ-67" edge="1">
          <mxGeometry width="50" height="50" relative="1" as="geometry">
            <mxPoint x="1130" y="800" as="sourcePoint" />
            <mxPoint x="1180" y="750" as="targetPoint" />
          </mxGeometry>
        </mxCell>
        <mxCell id="fcP9if3WN0dxyeJruNeQ-223" value="" style="endArrow=none;html=1;rounded=0;curved=1;exitX=1;exitY=0.5;exitDx=0;exitDy=0;entryX=0;entryY=0;entryDx=0;entryDy=0;" parent="1" source="fcP9if3WN0dxyeJruNeQ-61" edge="1" target="fcP9if3WN0dxyeJruNeQ-59">
          <mxGeometry width="50" height="50" relative="1" as="geometry">
            <mxPoint x="980" y="750" as="sourcePoint" />
            <mxPoint x="1030" y="700" as="targetPoint" />
          </mxGeometry>
        </mxCell>
        <mxCell id="fcP9if3WN0dxyeJruNeQ-224" value="" style="endArrow=none;html=1;rounded=0;curved=1;exitX=1;exitY=0.5;exitDx=0;exitDy=0;" parent="1" source="fcP9if3WN0dxyeJruNeQ-73" edge="1">
          <mxGeometry width="50" height="50" relative="1" as="geometry">
            <mxPoint x="980" y="800" as="sourcePoint" />
            <mxPoint x="1030" y="750" as="targetPoint" />
          </mxGeometry>
        </mxCell>
        <mxCell id="fcP9if3WN0dxyeJruNeQ-225" value="" style="endArrow=none;html=1;rounded=0;curved=1;exitX=1;exitY=0.5;exitDx=0;exitDy=0;" parent="1" source="fcP9if3WN0dxyeJruNeQ-62" edge="1">
          <mxGeometry width="50" height="50" relative="1" as="geometry">
            <mxPoint x="980" y="770" as="sourcePoint" />
            <mxPoint x="1030" y="720" as="targetPoint" />
          </mxGeometry>
        </mxCell>
        <mxCell id="fcP9if3WN0dxyeJruNeQ-226" value="&lt;font style=&quot;font-size: 14px;&quot;&gt;Stored&lt;/font&gt;" style="rhombus;whiteSpace=wrap;html=1;rotation=-45;" parent="1" vertex="1">
          <mxGeometry x="782.5" y="501" width="80" height="80" as="geometry" />
        </mxCell>
        <mxCell id="fcP9if3WN0dxyeJruNeQ-227" value="" style="shape=link;html=1;rounded=0;curved=1;entryX=0.5;entryY=1;entryDx=0;entryDy=0;exitX=1;exitY=0.5;exitDx=0;exitDy=0;" parent="1" target="fcP9if3WN0dxyeJruNeQ-83" edge="1" source="fcP9if3WN0dxyeJruNeQ-226">
          <mxGeometry width="100" relative="1" as="geometry">
            <mxPoint x="1000" y="480" as="sourcePoint" />
            <mxPoint x="1100" y="480" as="targetPoint" />
          </mxGeometry>
        </mxCell>
        <mxCell id="fcP9if3WN0dxyeJruNeQ-228" value="" style="shape=link;html=1;rounded=0;curved=1;exitX=1;exitY=0;exitDx=0;exitDy=0;entryX=0;entryY=0.5;entryDx=0;entryDy=0;" parent="1" source="fcP9if3WN0dxyeJruNeQ-48" edge="1" target="fcP9if3WN0dxyeJruNeQ-226">
          <mxGeometry width="100" relative="1" as="geometry">
            <mxPoint x="820" y="480" as="sourcePoint" />
            <mxPoint x="920" y="490" as="targetPoint" />
          </mxGeometry>
        </mxCell>
        <mxCell id="fcP9if3WN0dxyeJruNeQ-229" value="1" style="text;html=1;align=center;verticalAlign=middle;resizable=0;points=[];autosize=1;strokeColor=none;fillColor=none;rotation=-30;" parent="1" vertex="1">
          <mxGeometry x="825" y="480" width="30" height="30" as="geometry" />
        </mxCell>
        <mxCell id="fcP9if3WN0dxyeJruNeQ-230" value="1" style="text;html=1;align=center;verticalAlign=middle;resizable=0;points=[];autosize=1;strokeColor=none;fillColor=none;rotation=-30;" parent="1" vertex="1">
          <mxGeometry x="760" y="545" width="30" height="30" as="geometry" />
        </mxCell>
        <mxCell id="fcP9if3WN0dxyeJruNeQ-234" value="" style="shape=link;html=1;rounded=0;curved=1;exitX=0.5;exitY=0;exitDx=0;exitDy=0;entryX=0;entryY=0.5;entryDx=0;entryDy=0;" parent="1" source="fcP9if3WN0dxyeJruNeQ-38" edge="1" target="fcP9if3WN0dxyeJruNeQ-149">
          <mxGeometry width="100" relative="1" as="geometry">
            <mxPoint x="220" y="1030" as="sourcePoint" />
            <mxPoint x="320" y="1030" as="targetPoint" />
          </mxGeometry>
        </mxCell>
        <mxCell id="fcP9if3WN0dxyeJruNeQ-235" value="" style="endArrow=none;html=1;rounded=0;curved=1;entryX=0.5;entryY=0;entryDx=0;entryDy=0;exitX=1;exitY=0.5;exitDx=0;exitDy=0;" parent="1" target="fcP9if3WN0dxyeJruNeQ-48" edge="1" source="fcP9if3WN0dxyeJruNeQ-149">
          <mxGeometry width="50" height="50" relative="1" as="geometry">
            <mxPoint x="400" y="1030" as="sourcePoint" />
            <mxPoint x="450" y="980" as="targetPoint" />
          </mxGeometry>
        </mxCell>
        <mxCell id="fcP9if3WN0dxyeJruNeQ-236" value="N" style="text;html=1;align=center;verticalAlign=middle;resizable=0;points=[];autosize=1;strokeColor=none;fillColor=none;" parent="1" vertex="1">
          <mxGeometry x="305" y="535" width="30" height="30" as="geometry" />
        </mxCell>
        <mxCell id="fcP9if3WN0dxyeJruNeQ-237" value="1" style="text;html=1;align=center;verticalAlign=middle;resizable=0;points=[];autosize=1;strokeColor=none;fillColor=none;rotation=45;" parent="1" vertex="1">
          <mxGeometry x="415" y="535" width="30" height="30" as="geometry" />
        </mxCell>
        <mxCell id="fcP9if3WN0dxyeJruNeQ-238" value="&lt;font style=&quot;font-size: 14px;&quot;&gt;Suply&lt;/font&gt;" style="rhombus;whiteSpace=wrap;html=1;" parent="1" vertex="1">
          <mxGeometry x="800" y="890" width="80" height="80" as="geometry" />
        </mxCell>
        <mxCell id="fcP9if3WN0dxyeJruNeQ-239" value="" style="endArrow=none;html=1;rounded=0;curved=1;entryX=0.5;entryY=1;entryDx=0;entryDy=0;exitX=1;exitY=0.5;exitDx=0;exitDy=0;" parent="1" target="fcP9if3WN0dxyeJruNeQ-59" edge="1" source="fcP9if3WN0dxyeJruNeQ-238">
          <mxGeometry width="50" height="50" relative="1" as="geometry">
            <mxPoint x="880" y="1030" as="sourcePoint" />
            <mxPoint x="930" y="980" as="targetPoint" />
          </mxGeometry>
        </mxCell>
        <mxCell id="fcP9if3WN0dxyeJruNeQ-241" value="" style="shape=link;html=1;rounded=0;curved=1;exitX=0.75;exitY=1;exitDx=0;exitDy=0;entryX=0;entryY=0.5;entryDx=0;entryDy=0;" parent="1" source="fcP9if3WN0dxyeJruNeQ-48" edge="1" target="fcP9if3WN0dxyeJruNeQ-238">
          <mxGeometry width="100" relative="1" as="geometry">
            <mxPoint x="700" y="1030" as="sourcePoint" />
            <mxPoint x="800" y="1030" as="targetPoint" />
          </mxGeometry>
        </mxCell>
        <mxCell id="fcP9if3WN0dxyeJruNeQ-242" value="1" style="text;html=1;align=center;verticalAlign=middle;resizable=0;points=[];autosize=1;strokeColor=none;fillColor=none;" parent="1" vertex="1">
          <mxGeometry x="865" y="895" width="30" height="30" as="geometry" />
        </mxCell>
        <mxCell id="fcP9if3WN0dxyeJruNeQ-243" value="N" style="text;html=1;align=center;verticalAlign=middle;resizable=0;points=[];autosize=1;strokeColor=none;fillColor=none;" parent="1" vertex="1">
          <mxGeometry x="790" y="895" width="30" height="30" as="geometry" />
        </mxCell>
        <mxCell id="fcP9if3WN0dxyeJruNeQ-244" value="" style="shape=link;html=1;rounded=0;curved=1;entryX=0.5;entryY=1;entryDx=0;entryDy=0;exitX=1;exitY=0.5;exitDx=0;exitDy=0;" parent="1" source="fcP9if3WN0dxyeJruNeQ-131" target="fcP9if3WN0dxyeJruNeQ-82" edge="1">
          <mxGeometry width="100" relative="1" as="geometry">
            <mxPoint x="890" y="370" as="sourcePoint" />
            <mxPoint x="990" y="370" as="targetPoint" />
          </mxGeometry>
        </mxCell>
        <mxCell id="td_bcQvc1OPMxvnjryIi-1" value="N" style="text;html=1;align=center;verticalAlign=middle;resizable=0;points=[];autosize=1;strokeColor=none;fillColor=none;rotation=-30;" parent="1" vertex="1">
          <mxGeometry x="570" y="380" width="30" height="30" as="geometry" />
        </mxCell>
        <mxCell id="td_bcQvc1OPMxvnjryIi-2" value="1" style="text;html=1;align=center;verticalAlign=middle;resizable=0;points=[];autosize=1;strokeColor=none;fillColor=none;" parent="1" vertex="1">
          <mxGeometry x="485" y="390" width="30" height="30" as="geometry" />
        </mxCell>
        <mxCell id="td_bcQvc1OPMxvnjryIi-3" value="" style="endArrow=none;html=1;rounded=0;entryX=0;entryY=0.5;entryDx=0;entryDy=0;exitX=1;exitY=0.5;exitDx=0;exitDy=0;" parent="1" target="fcP9if3WN0dxyeJruNeQ-131" edge="1" source="fcP9if3WN0dxyeJruNeQ-28">
          <mxGeometry width="50" height="50" relative="1" as="geometry">
            <mxPoint x="30" y="420" as="sourcePoint" />
            <mxPoint x="40" y="390" as="targetPoint" />
          </mxGeometry>
        </mxCell>
        <mxCell id="td_bcQvc1OPMxvnjryIi-4" value="" style="endArrow=none;html=1;rounded=0;exitX=1;exitY=0.5;exitDx=0;exitDy=0;entryX=0;entryY=0;entryDx=0;entryDy=0;" parent="1" source="fcP9if3WN0dxyeJruNeQ-32" edge="1" target="fcP9if3WN0dxyeJruNeQ-28">
          <mxGeometry width="50" height="50" relative="1" as="geometry">
            <mxPoint x="-180" y="458" as="sourcePoint" />
            <mxPoint x="-130" y="408" as="targetPoint" />
          </mxGeometry>
        </mxCell>
        <mxCell id="td_bcQvc1OPMxvnjryIi-5" value="" style="endArrow=none;html=1;rounded=0;exitX=1;exitY=0.5;exitDx=0;exitDy=0;entryX=0;entryY=1;entryDx=0;entryDy=0;" parent="1" source="fcP9if3WN0dxyeJruNeQ-31" edge="1" target="fcP9if3WN0dxyeJruNeQ-28">
          <mxGeometry width="50" height="50" relative="1" as="geometry">
            <mxPoint x="-180" y="478" as="sourcePoint" />
            <mxPoint x="-130" y="428" as="targetPoint" />
          </mxGeometry>
        </mxCell>
        <mxCell id="K__QOgjD8zJUKf0Jn4Jv-3" style="edgeStyle=orthogonalEdgeStyle;rounded=0;orthogonalLoop=1;jettySize=auto;html=1;exitX=0.5;exitY=1;exitDx=0;exitDy=0;" edge="1" parent="1" source="fcP9if3WN0dxyeJruNeQ-30" target="fcP9if3WN0dxyeJruNeQ-30">
          <mxGeometry relative="1" as="geometry" />
        </mxCell>
      </root>
    </mxGraphModel>
  </diagram>
</mxfile>
